<mxfile host="Electron" modified="2024-06-07T21:57:06.307Z" agent="Mozilla/5.0 (Windows NT 10.0; Win64; x64) AppleWebKit/537.36 (KHTML, like Gecko) draw.io/24.0.4 Chrome/120.0.6099.109 Electron/28.1.0 Safari/537.36" etag="n4uBnqWmt9CrtRsuwxF3" version="24.0.4" type="device">
  <diagram name="Página-1" id="RkLHObvPeCDdthXe25Bt">
    <mxGraphModel dx="2362" dy="903" grid="1" gridSize="10" guides="1" tooltips="1" connect="1" arrows="1" fold="1" page="1" pageScale="1" pageWidth="827" pageHeight="1169" math="0" shadow="0">
      <root>
        <mxCell id="0" />
        <mxCell id="1" parent="0" />
        <mxCell id="RiAWKYnP5i1xKqik1eG4-26" style="edgeStyle=orthogonalEdgeStyle;rounded=1;orthogonalLoop=1;jettySize=auto;html=1;entryX=0.5;entryY=0;entryDx=0;entryDy=0;labelBackgroundColor=none;strokeColor=#FF6392;fontColor=default;" edge="1" parent="1" source="RiAWKYnP5i1xKqik1eG4-1" target="RiAWKYnP5i1xKqik1eG4-10">
          <mxGeometry relative="1" as="geometry" />
        </mxCell>
        <mxCell id="RiAWKYnP5i1xKqik1eG4-1" value="Vehiculo" style="swimlane;fontStyle=1;align=center;verticalAlign=top;childLayout=stackLayout;horizontal=1;startSize=26;horizontalStack=0;resizeParent=1;resizeParentMax=0;resizeLast=0;collapsible=1;marginBottom=0;whiteSpace=wrap;html=1;labelBackgroundColor=none;fillColor=#FFE45E;strokeColor=#FF6392;fontColor=#5AA9E6;rounded=1;" vertex="1" parent="1">
          <mxGeometry x="360" y="338" width="270" height="170" as="geometry" />
        </mxCell>
        <mxCell id="RiAWKYnP5i1xKqik1eG4-2" value="- valor : Real&lt;div&gt;- cantOcupantes: Integer&lt;/div&gt;&lt;div&gt;- anioFabricacion: Integer&lt;/div&gt;" style="text;strokeColor=none;fillColor=none;align=left;verticalAlign=top;spacingLeft=4;spacingRight=4;overflow=hidden;rotatable=0;points=[[0,0.5],[1,0.5]];portConstraint=eastwest;whiteSpace=wrap;html=1;labelBackgroundColor=none;fontColor=#5AA9E6;rounded=1;" vertex="1" parent="RiAWKYnP5i1xKqik1eG4-1">
          <mxGeometry y="26" width="270" height="64" as="geometry" />
        </mxCell>
        <mxCell id="RiAWKYnP5i1xKqik1eG4-3" value="" style="line;strokeWidth=1;fillColor=none;align=left;verticalAlign=middle;spacingTop=-1;spacingLeft=3;spacingRight=3;rotatable=0;labelPosition=right;points=[];portConstraint=eastwest;strokeColor=#FF6392;labelBackgroundColor=none;fontColor=#5AA9E6;rounded=1;" vertex="1" parent="RiAWKYnP5i1xKqik1eG4-1">
          <mxGeometry y="90" width="270" height="8" as="geometry" />
        </mxCell>
        <mxCell id="RiAWKYnP5i1xKqik1eG4-4" value="+ calcularCostoSeguro(Persona persona): Real&lt;div&gt;+ calcularAntiguedad(): Integer&lt;/div&gt;&lt;div&gt;+ getValor():Real&lt;/div&gt;&lt;div&gt;+ getCantOcupantes(): Integer&lt;/div&gt;&lt;div style=&quot;background-color:#2f2f2f;padding:0px 0px 0px 2px;&quot;&gt;&lt;div style=&quot;color: rgb(170, 170, 170); font-family: Consolas; font-size: 10pt; white-space: pre;&quot;&gt;&lt;p style=&quot;background-color:#373737;margin:0;&quot;&gt;&lt;span style=&quot;color:#d9e8f7;&quot;&gt;&lt;/span&gt;&lt;/p&gt;&lt;/div&gt;&lt;/div&gt;" style="text;strokeColor=none;fillColor=none;align=left;verticalAlign=top;spacingLeft=4;spacingRight=4;overflow=hidden;rotatable=0;points=[[0,0.5],[1,0.5]];portConstraint=eastwest;whiteSpace=wrap;html=1;labelBackgroundColor=none;fontColor=#5AA9E6;rounded=1;" vertex="1" parent="RiAWKYnP5i1xKqik1eG4-1">
          <mxGeometry y="98" width="270" height="72" as="geometry" />
        </mxCell>
        <mxCell id="RiAWKYnP5i1xKqik1eG4-9" style="edgeStyle=orthogonalEdgeStyle;rounded=1;orthogonalLoop=1;jettySize=auto;html=1;entryX=0.5;entryY=0;entryDx=0;entryDy=0;labelBackgroundColor=none;strokeColor=#FF6392;fontColor=default;" edge="1" parent="1" source="RiAWKYnP5i1xKqik1eG4-5" target="RiAWKYnP5i1xKqik1eG4-1">
          <mxGeometry relative="1" as="geometry" />
        </mxCell>
        <mxCell id="RiAWKYnP5i1xKqik1eG4-5" value="Persona" style="swimlane;fontStyle=1;align=center;verticalAlign=top;childLayout=stackLayout;horizontal=1;startSize=26;horizontalStack=0;resizeParent=1;resizeParentMax=0;resizeLast=0;collapsible=1;marginBottom=0;whiteSpace=wrap;html=1;labelBackgroundColor=none;fillColor=#FFE45E;strokeColor=#FF6392;fontColor=#5AA9E6;rounded=1;" vertex="1" parent="1">
          <mxGeometry x="15" y="220" width="250" height="190" as="geometry" />
        </mxCell>
        <mxCell id="RiAWKYnP5i1xKqik1eG4-6" value="- edad: Integer" style="text;strokeColor=none;fillColor=none;align=left;verticalAlign=top;spacingLeft=4;spacingRight=4;overflow=hidden;rotatable=0;points=[[0,0.5],[1,0.5]];portConstraint=eastwest;whiteSpace=wrap;html=1;labelBackgroundColor=none;fontColor=#5AA9E6;rounded=1;" vertex="1" parent="RiAWKYnP5i1xKqik1eG4-5">
          <mxGeometry y="26" width="250" height="24" as="geometry" />
        </mxCell>
        <mxCell id="RiAWKYnP5i1xKqik1eG4-7" value="" style="line;strokeWidth=1;fillColor=none;align=left;verticalAlign=middle;spacingTop=-1;spacingLeft=3;spacingRight=3;rotatable=0;labelPosition=right;points=[];portConstraint=eastwest;strokeColor=#FF6392;labelBackgroundColor=none;fontColor=#5AA9E6;rounded=1;" vertex="1" parent="RiAWKYnP5i1xKqik1eG4-5">
          <mxGeometry y="50" width="250" height="8" as="geometry" />
        </mxCell>
        <mxCell id="RiAWKYnP5i1xKqik1eG4-8" value="&lt;div&gt;+&amp;lt;&amp;lt;create&amp;gt;&amp;gt;Persona(vehiculo:Vehiculo[*], promo: Promocion,edad: Integer)&lt;/div&gt;+ getEdad():Integer&lt;div&gt;+ agregarVehiculo(vehiculo:Vehiculo)&lt;br&gt;&lt;div&gt;+ calcularCostoSeguros(): Integer&lt;/div&gt;&lt;div&gt;+ setPromocion(promocion:Promocion)&lt;/div&gt;&lt;/div&gt;&lt;div&gt;+ cantPolizas(): Integer&lt;/div&gt;&lt;div&gt;+ polizaMasChica(): Real&lt;/div&gt;" style="text;strokeColor=none;fillColor=none;align=left;verticalAlign=top;spacingLeft=4;spacingRight=4;overflow=hidden;rotatable=0;points=[[0,0.5],[1,0.5]];portConstraint=eastwest;whiteSpace=wrap;html=1;labelBackgroundColor=none;fontColor=#5AA9E6;rounded=1;" vertex="1" parent="RiAWKYnP5i1xKqik1eG4-5">
          <mxGeometry y="58" width="250" height="132" as="geometry" />
        </mxCell>
        <mxCell id="RiAWKYnP5i1xKqik1eG4-10" value="&amp;lt;&amp;lt;Abstract&amp;gt;&amp;gt;Seguro" style="swimlane;fontStyle=1;align=center;verticalAlign=top;childLayout=stackLayout;horizontal=1;startSize=26;horizontalStack=0;resizeParent=1;resizeParentMax=0;resizeLast=0;collapsible=1;marginBottom=0;whiteSpace=wrap;html=1;labelBackgroundColor=none;fillColor=#FFE45E;strokeColor=#FF6392;fontColor=#5AA9E6;rounded=1;" vertex="1" parent="1">
          <mxGeometry x="255" y="558" width="480" height="130" as="geometry" />
        </mxCell>
        <mxCell id="RiAWKYnP5i1xKqik1eG4-70" value="&lt;div&gt;+ calcularCostoSeguro(Persona persona, Vechiculo vehiculo): Real&lt;/div&gt;&lt;div&gt;# CostoSeguroDelConductor(persona: Persona): Integer&lt;/div&gt;# &amp;lt;abstract&amp;gt; CostoSeguroDeVida(persona:Persona, vehiculo: Vehiculo):Real&lt;div&gt;# &amp;lt;abstract&amp;gt; CostoCoberturaDeDaños(&lt;span style=&quot;background-color: initial;&quot;&gt;persona:Persona, vehiculo: Vehiculo&lt;/span&gt;&lt;span style=&quot;background-color: initial;&quot;&gt;):Real&lt;/span&gt;&lt;/div&gt;&lt;div&gt;#&amp;nbsp;&lt;span style=&quot;background-color: initial;&quot;&gt;CostoCoberturaDestruccionTotal(&lt;/span&gt;&lt;span style=&quot;background-color: initial;&quot;&gt;persona:Persona, vehiculo: Vehiculo&lt;/span&gt;&lt;span style=&quot;background-color: initial;&quot;&gt;):Real&lt;/span&gt;&lt;/div&gt;" style="text;strokeColor=none;fillColor=none;align=left;verticalAlign=top;spacingLeft=4;spacingRight=4;overflow=hidden;rotatable=0;points=[[0,0.5],[1,0.5]];portConstraint=eastwest;whiteSpace=wrap;html=1;labelBackgroundColor=none;fontColor=#5AA9E6;rounded=1;" vertex="1" parent="RiAWKYnP5i1xKqik1eG4-10">
          <mxGeometry y="26" width="480" height="104" as="geometry" />
        </mxCell>
        <mxCell id="RiAWKYnP5i1xKqik1eG4-14" value="SeguroContraTerceros" style="swimlane;fontStyle=1;align=center;verticalAlign=top;childLayout=stackLayout;horizontal=1;startSize=26;horizontalStack=0;resizeParent=1;resizeParentMax=0;resizeLast=0;collapsible=1;marginBottom=0;whiteSpace=wrap;html=1;labelBackgroundColor=none;fillColor=#FFE45E;strokeColor=#FF6392;fontColor=#5AA9E6;rounded=1;" vertex="1" parent="1">
          <mxGeometry x="-63.5" y="768" width="360" height="80" as="geometry" />
        </mxCell>
        <mxCell id="RiAWKYnP5i1xKqik1eG4-17" value="#CostoSeguroDeVida(persona:Persona, vehiculo: Vehiculo):Real&lt;br&gt;&lt;div&gt;&lt;span style=&quot;background-color: initial;&quot;&gt;#&lt;/span&gt;CostoCoberturaDeDaños(&lt;span style=&quot;background-color: initial;&quot;&gt;persona:Persona, vehiculo: Vehiculo&lt;/span&gt;&lt;span style=&quot;background-color: initial;&quot;&gt;):Real&lt;/span&gt;&lt;/div&gt;" style="text;strokeColor=none;fillColor=none;align=left;verticalAlign=top;spacingLeft=4;spacingRight=4;overflow=hidden;rotatable=0;points=[[0,0.5],[1,0.5]];portConstraint=eastwest;whiteSpace=wrap;html=1;labelBackgroundColor=none;fontColor=#5AA9E6;rounded=1;" vertex="1" parent="RiAWKYnP5i1xKqik1eG4-14">
          <mxGeometry y="26" width="360" height="54" as="geometry" />
        </mxCell>
        <mxCell id="RiAWKYnP5i1xKqik1eG4-18" value="SeguroContraTercerosCompleto" style="swimlane;fontStyle=1;align=center;verticalAlign=top;childLayout=stackLayout;horizontal=1;startSize=26;horizontalStack=0;resizeParent=1;resizeParentMax=0;resizeLast=0;collapsible=1;marginBottom=0;whiteSpace=wrap;html=1;labelBackgroundColor=none;fillColor=#FFE45E;strokeColor=#FF6392;fontColor=#5AA9E6;rounded=1;" vertex="1" parent="1">
          <mxGeometry x="315" y="768" width="360" height="100" as="geometry" />
        </mxCell>
        <mxCell id="RiAWKYnP5i1xKqik1eG4-75" value="#CostoSeguroDeVida(persona:Persona, vehiculo: Vehiculo):Real&lt;br&gt;&lt;div&gt;&lt;span style=&quot;background-color: initial;&quot;&gt;#&lt;/span&gt;CostoCoberturaDeDaños(&lt;span style=&quot;background-color: initial;&quot;&gt;persona:Persona, vehiculo: Vehiculo&lt;/span&gt;&lt;span style=&quot;background-color: initial;&quot;&gt;):Real&lt;/span&gt;&lt;/div&gt;&lt;div&gt;&lt;span style=&quot;background-color: initial;&quot;&gt;#&lt;/span&gt;&lt;span style=&quot;background-color: initial;&quot;&gt;CostoCoberturaDestruccionTotal(vehiculo:Vehiculo):Real&lt;/span&gt;&lt;/div&gt;" style="text;strokeColor=none;fillColor=none;align=left;verticalAlign=top;spacingLeft=4;spacingRight=4;overflow=hidden;rotatable=0;points=[[0,0.5],[1,0.5]];portConstraint=eastwest;whiteSpace=wrap;html=1;labelBackgroundColor=none;fontColor=#5AA9E6;rounded=1;" vertex="1" parent="RiAWKYnP5i1xKqik1eG4-18">
          <mxGeometry y="26" width="360" height="74" as="geometry" />
        </mxCell>
        <mxCell id="RiAWKYnP5i1xKqik1eG4-22" value="SeguroContraTodoRiesgo" style="swimlane;fontStyle=1;align=center;verticalAlign=top;childLayout=stackLayout;horizontal=1;startSize=26;horizontalStack=0;resizeParent=1;resizeParentMax=0;resizeLast=0;collapsible=1;marginBottom=0;whiteSpace=wrap;html=1;labelBackgroundColor=none;fillColor=#FFE45E;strokeColor=#FF6392;fontColor=#5AA9E6;rounded=1;" vertex="1" parent="1">
          <mxGeometry x="690" y="768" width="357.5" height="100" as="geometry" />
        </mxCell>
        <mxCell id="RiAWKYnP5i1xKqik1eG4-76" value="#CostoSeguroDeVida(persona:Persona, vehiculo: Vehiculo):Real&lt;br&gt;&lt;div&gt;&lt;span style=&quot;background-color: initial;&quot;&gt;#&lt;/span&gt;CostoCoberturaDeDaños(&lt;span style=&quot;background-color: initial;&quot;&gt;persona:Persona, vehiculo: Vehiculo&lt;/span&gt;&lt;span style=&quot;background-color: initial;&quot;&gt;):Real&lt;/span&gt;&lt;/div&gt;&lt;div&gt;&lt;span style=&quot;background-color: initial;&quot;&gt;#&lt;/span&gt;&lt;span style=&quot;background-color: initial;&quot;&gt;CostoCoberturaDestruccionTotal(vehiculo:Vehiculo):Real&lt;/span&gt;&lt;/div&gt;" style="text;strokeColor=none;fillColor=none;align=left;verticalAlign=top;spacingLeft=4;spacingRight=4;overflow=hidden;rotatable=0;points=[[0,0.5],[1,0.5]];portConstraint=eastwest;whiteSpace=wrap;html=1;labelBackgroundColor=none;fontColor=#5AA9E6;rounded=1;" vertex="1" parent="RiAWKYnP5i1xKqik1eG4-22">
          <mxGeometry y="26" width="357.5" height="74" as="geometry" />
        </mxCell>
        <mxCell id="RiAWKYnP5i1xKqik1eG4-27" value="1&lt;div&gt;- seguro&lt;/div&gt;" style="text;html=1;align=center;verticalAlign=middle;resizable=0;points=[];autosize=1;strokeColor=none;fillColor=none;labelBackgroundColor=none;fontColor=#5AA9E6;rounded=1;" vertex="1" parent="1">
          <mxGeometry x="500" y="513" width="70" height="40" as="geometry" />
        </mxCell>
        <mxCell id="RiAWKYnP5i1xKqik1eG4-28" value="" style="endArrow=block;endSize=16;endFill=0;html=1;rounded=1;labelBackgroundColor=none;strokeColor=#FF6392;fontColor=default;" edge="1" parent="1" source="RiAWKYnP5i1xKqik1eG4-14" target="RiAWKYnP5i1xKqik1eG4-10">
          <mxGeometry width="160" relative="1" as="geometry">
            <mxPoint x="381" y="798" as="sourcePoint" />
            <mxPoint x="541" y="798" as="targetPoint" />
          </mxGeometry>
        </mxCell>
        <mxCell id="RiAWKYnP5i1xKqik1eG4-29" value="" style="endArrow=block;endSize=16;endFill=0;html=1;rounded=1;labelBackgroundColor=none;strokeColor=#FF6392;fontColor=default;" edge="1" parent="1" source="RiAWKYnP5i1xKqik1eG4-18" target="RiAWKYnP5i1xKqik1eG4-10">
          <mxGeometry width="160" relative="1" as="geometry">
            <mxPoint x="330" y="718" as="sourcePoint" />
            <mxPoint x="435" y="654" as="targetPoint" />
          </mxGeometry>
        </mxCell>
        <mxCell id="RiAWKYnP5i1xKqik1eG4-30" value="" style="endArrow=block;endSize=16;endFill=0;html=1;rounded=1;labelBackgroundColor=none;strokeColor=#FF6392;fontColor=default;" edge="1" parent="1" source="RiAWKYnP5i1xKqik1eG4-22" target="RiAWKYnP5i1xKqik1eG4-10">
          <mxGeometry width="160" relative="1" as="geometry">
            <mxPoint x="340" y="728" as="sourcePoint" />
            <mxPoint x="445" y="664" as="targetPoint" />
          </mxGeometry>
        </mxCell>
        <mxCell id="RiAWKYnP5i1xKqik1eG4-31" value="Strategy" style="html=1;whiteSpace=wrap;labelBackgroundColor=none;fillColor=#e51400;strokeColor=#B20000;fontColor=#ffffff;rounded=1;" vertex="1" parent="1">
          <mxGeometry x="660" y="518" width="70" height="30" as="geometry" />
        </mxCell>
        <mxCell id="RiAWKYnP5i1xKqik1eG4-32" value="&lt;div&gt;Concrete&lt;/div&gt;Strategy" style="html=1;whiteSpace=wrap;labelBackgroundColor=none;fillColor=#e51400;strokeColor=#B20000;fontColor=#ffffff;rounded=1;" vertex="1" parent="1">
          <mxGeometry x="-55" y="710" width="70" height="40" as="geometry" />
        </mxCell>
        <mxCell id="RiAWKYnP5i1xKqik1eG4-37" style="edgeStyle=orthogonalEdgeStyle;rounded=1;orthogonalLoop=1;jettySize=auto;html=1;entryX=0.5;entryY=0;entryDx=0;entryDy=0;labelBackgroundColor=none;strokeColor=#FF6392;fontColor=default;" edge="1" parent="1" source="RiAWKYnP5i1xKqik1eG4-33" target="RiAWKYnP5i1xKqik1eG4-5">
          <mxGeometry relative="1" as="geometry" />
        </mxCell>
        <mxCell id="RiAWKYnP5i1xKqik1eG4-33" value="Empresa" style="swimlane;fontStyle=1;align=center;verticalAlign=top;childLayout=stackLayout;horizontal=1;startSize=26;horizontalStack=0;resizeParent=1;resizeParentMax=0;resizeLast=0;collapsible=1;marginBottom=0;whiteSpace=wrap;html=1;labelBackgroundColor=none;fillColor=#FFE45E;strokeColor=#FF6392;fontColor=#5AA9E6;rounded=1;" vertex="1" parent="1">
          <mxGeometry x="382.5" y="150" width="225" height="70" as="geometry" />
        </mxCell>
        <mxCell id="RiAWKYnP5i1xKqik1eG4-74" value="+ &amp;lt;&amp;lt;create&amp;gt;&amp;gt; Empresa()&lt;div&gt;+ agregarUsuario(Persona persona)&lt;/div&gt;" style="text;strokeColor=none;fillColor=none;align=left;verticalAlign=top;spacingLeft=4;spacingRight=4;overflow=hidden;rotatable=0;points=[[0,0.5],[1,0.5]];portConstraint=eastwest;whiteSpace=wrap;html=1;labelBackgroundColor=none;fontColor=#5AA9E6;rounded=1;" vertex="1" parent="RiAWKYnP5i1xKqik1eG4-33">
          <mxGeometry y="26" width="225" height="44" as="geometry" />
        </mxCell>
        <mxCell id="RiAWKYnP5i1xKqik1eG4-38" value="*&lt;div&gt;usuarios&lt;/div&gt;" style="text;html=1;align=center;verticalAlign=middle;resizable=0;points=[];autosize=1;strokeColor=none;fillColor=none;labelBackgroundColor=none;fontColor=#5AA9E6;rounded=1;" vertex="1" parent="1">
          <mxGeometry x="226.5" y="140" width="70" height="40" as="geometry" />
        </mxCell>
        <mxCell id="RiAWKYnP5i1xKqik1eG4-45" value="&amp;lt;&amp;lt;Interface&amp;gt;&amp;gt;Promocion" style="swimlane;fontStyle=1;align=center;verticalAlign=top;childLayout=stackLayout;horizontal=1;startSize=26;horizontalStack=0;resizeParent=1;resizeParentMax=0;resizeLast=0;collapsible=1;marginBottom=0;whiteSpace=wrap;html=1;labelBackgroundColor=none;fillColor=#FFE45E;strokeColor=#FF6392;fontColor=#5AA9E6;rounded=1;" vertex="1" parent="1">
          <mxGeometry x="-393.88" y="408" width="300" height="90" as="geometry" />
        </mxCell>
        <mxCell id="RiAWKYnP5i1xKqik1eG4-48" value="&lt;div&gt;&lt;span style=&quot;background-color: initial;&quot;&gt;+ &amp;lt;&amp;lt;abstract&amp;gt;&amp;gt; calcularDescuento(&lt;/span&gt;&lt;span style=&quot;background-color: initial;&quot;&gt;persona:Persona, costoSeguro: Real&lt;/span&gt;&lt;span style=&quot;background-color: initial;&quot;&gt;): Real&lt;/span&gt;&lt;/div&gt;&lt;div&gt;&lt;span style=&quot;background-color: initial;&quot;&gt;&lt;br&gt;&lt;/span&gt;&lt;/div&gt;" style="text;strokeColor=none;fillColor=none;align=left;verticalAlign=top;spacingLeft=4;spacingRight=4;overflow=hidden;rotatable=0;points=[[0,0.5],[1,0.5]];portConstraint=eastwest;whiteSpace=wrap;html=1;labelBackgroundColor=none;fontColor=#5AA9E6;rounded=1;" vertex="1" parent="RiAWKYnP5i1xKqik1eG4-45">
          <mxGeometry y="26" width="300" height="64" as="geometry" />
        </mxCell>
        <mxCell id="RiAWKYnP5i1xKqik1eG4-49" value="SinPromocion" style="swimlane;fontStyle=1;align=center;verticalAlign=top;childLayout=stackLayout;horizontal=1;startSize=26;horizontalStack=0;resizeParent=1;resizeParentMax=0;resizeLast=0;collapsible=1;marginBottom=0;whiteSpace=wrap;html=1;labelBackgroundColor=none;fillColor=#FFE45E;strokeColor=#FF6392;fontColor=#5AA9E6;rounded=1;" vertex="1" parent="1">
          <mxGeometry x="-630.38" y="558" width="236.5" height="90" as="geometry" />
        </mxCell>
        <mxCell id="RiAWKYnP5i1xKqik1eG4-83" value="&lt;div&gt;&lt;span style=&quot;background-color: initial;&quot;&gt;+ calcularDescuento(&lt;/span&gt;&lt;span style=&quot;background-color: initial;&quot;&gt;persona:Persona, costoSeguro: Real&lt;/span&gt;&lt;span style=&quot;background-color: initial;&quot;&gt;): Real&lt;/span&gt;&lt;/div&gt;&lt;div&gt;&lt;span style=&quot;background-color: initial;&quot;&gt;&lt;br&gt;&lt;/span&gt;&lt;/div&gt;" style="text;strokeColor=none;fillColor=none;align=left;verticalAlign=top;spacingLeft=4;spacingRight=4;overflow=hidden;rotatable=0;points=[[0,0.5],[1,0.5]];portConstraint=eastwest;whiteSpace=wrap;html=1;labelBackgroundColor=none;fontColor=#5AA9E6;rounded=1;" vertex="1" parent="RiAWKYnP5i1xKqik1eG4-49">
          <mxGeometry y="26" width="236.5" height="64" as="geometry" />
        </mxCell>
        <mxCell id="RiAWKYnP5i1xKqik1eG4-53" value="PromocionPorMultiplesPolizas" style="swimlane;fontStyle=1;align=center;verticalAlign=top;childLayout=stackLayout;horizontal=1;startSize=26;horizontalStack=0;resizeParent=1;resizeParentMax=0;resizeLast=0;collapsible=1;marginBottom=0;whiteSpace=wrap;html=1;labelBackgroundColor=none;fillColor=#FFE45E;strokeColor=#FF6392;fontColor=#5AA9E6;rounded=1;" vertex="1" parent="1">
          <mxGeometry x="-362.13" y="558" width="236.5" height="90" as="geometry" />
        </mxCell>
        <mxCell id="RiAWKYnP5i1xKqik1eG4-82" value="&lt;div&gt;&lt;span style=&quot;background-color: initial;&quot;&gt;+ calcularDescuento(&lt;/span&gt;&lt;span style=&quot;background-color: initial;&quot;&gt;persona:Persona, costoSeguro: Real&lt;/span&gt;&lt;span style=&quot;background-color: initial;&quot;&gt;): Real&lt;/span&gt;&lt;/div&gt;&lt;div&gt;&lt;span style=&quot;background-color: initial;&quot;&gt;&lt;br&gt;&lt;/span&gt;&lt;/div&gt;" style="text;strokeColor=none;fillColor=none;align=left;verticalAlign=top;spacingLeft=4;spacingRight=4;overflow=hidden;rotatable=0;points=[[0,0.5],[1,0.5]];portConstraint=eastwest;whiteSpace=wrap;html=1;labelBackgroundColor=none;fontColor=#5AA9E6;rounded=1;" vertex="1" parent="RiAWKYnP5i1xKqik1eG4-53">
          <mxGeometry y="26" width="236.5" height="64" as="geometry" />
        </mxCell>
        <mxCell id="RiAWKYnP5i1xKqik1eG4-57" value="PromocionPorCampanaExcepcional" style="swimlane;fontStyle=1;align=center;verticalAlign=top;childLayout=stackLayout;horizontal=1;startSize=26;horizontalStack=0;resizeParent=1;resizeParentMax=0;resizeLast=0;collapsible=1;marginBottom=0;whiteSpace=wrap;html=1;labelBackgroundColor=none;fillColor=#FFE45E;strokeColor=#FF6392;fontColor=#5AA9E6;rounded=1;" vertex="1" parent="1">
          <mxGeometry x="-96.94000000000005" y="558" width="236.94" height="90" as="geometry" />
        </mxCell>
        <mxCell id="RiAWKYnP5i1xKqik1eG4-81" value="&lt;div&gt;&lt;span style=&quot;background-color: initial;&quot;&gt;+ calcularDescuento(&lt;/span&gt;&lt;span style=&quot;background-color: initial;&quot;&gt;persona:Persona, costoSeguro: Real&lt;/span&gt;&lt;span style=&quot;background-color: initial;&quot;&gt;): Real&lt;/span&gt;&lt;/div&gt;&lt;div&gt;&lt;span style=&quot;background-color: initial;&quot;&gt;&lt;br&gt;&lt;/span&gt;&lt;/div&gt;" style="text;strokeColor=none;fillColor=none;align=left;verticalAlign=top;spacingLeft=4;spacingRight=4;overflow=hidden;rotatable=0;points=[[0,0.5],[1,0.5]];portConstraint=eastwest;whiteSpace=wrap;html=1;labelBackgroundColor=none;fontColor=#5AA9E6;rounded=1;" vertex="1" parent="RiAWKYnP5i1xKqik1eG4-57">
          <mxGeometry y="26" width="236.94" height="64" as="geometry" />
        </mxCell>
        <mxCell id="RiAWKYnP5i1xKqik1eG4-65" value="Strategy" style="html=1;whiteSpace=wrap;labelBackgroundColor=none;fillColor=#e51400;strokeColor=#B20000;fontColor=#ffffff;rounded=1;" vertex="1" parent="1">
          <mxGeometry x="-380" y="370" width="70" height="30" as="geometry" />
        </mxCell>
        <mxCell id="RiAWKYnP5i1xKqik1eG4-66" value="&lt;div&gt;Concrete&lt;/div&gt;Strategy" style="html=1;whiteSpace=wrap;labelBackgroundColor=none;fillColor=#e51400;strokeColor=#B20000;fontColor=#ffffff;rounded=1;" vertex="1" parent="1">
          <mxGeometry x="70" y="498" width="70" height="40" as="geometry" />
        </mxCell>
        <mxCell id="RiAWKYnP5i1xKqik1eG4-67" style="edgeStyle=orthogonalEdgeStyle;rounded=1;orthogonalLoop=1;jettySize=auto;html=1;entryX=0.5;entryY=0;entryDx=0;entryDy=0;labelBackgroundColor=none;strokeColor=#FF6392;fontColor=default;" edge="1" parent="1" source="RiAWKYnP5i1xKqik1eG4-5" target="RiAWKYnP5i1xKqik1eG4-45">
          <mxGeometry relative="1" as="geometry">
            <mxPoint x="-245" y="368" as="targetPoint" />
          </mxGeometry>
        </mxCell>
        <mxCell id="RiAWKYnP5i1xKqik1eG4-68" value="1&lt;div&gt;- promo&lt;/div&gt;" style="text;html=1;align=center;verticalAlign=middle;resizable=0;points=[];autosize=1;strokeColor=none;fillColor=none;labelBackgroundColor=none;fontColor=#5AA9E6;rounded=1;" vertex="1" parent="1">
          <mxGeometry x="-170" y="268" width="60" height="40" as="geometry" />
        </mxCell>
        <mxCell id="RiAWKYnP5i1xKqik1eG4-69" value="*&lt;div&gt;vehiculos&lt;/div&gt;" style="text;html=1;align=center;verticalAlign=middle;resizable=0;points=[];autosize=1;strokeColor=none;fillColor=none;labelBackgroundColor=none;fontColor=#5AA9E6;rounded=1;" vertex="1" parent="1">
          <mxGeometry x="344" y="268" width="70" height="40" as="geometry" />
        </mxCell>
        <mxCell id="RiAWKYnP5i1xKqik1eG4-71" value="NullObject&lt;div&gt;&lt;/div&gt;" style="html=1;whiteSpace=wrap;direction=south;textDirection=vertical-lr;labelBackgroundColor=none;fillColor=#d80073;strokeColor=#A50040;fontColor=#ffffff;rounded=1;" vertex="1" parent="1">
          <mxGeometry x="-660" y="569" width="20" height="68" as="geometry" />
        </mxCell>
        <mxCell id="RiAWKYnP5i1xKqik1eG4-77" value="" style="endArrow=block;dashed=1;endFill=0;endSize=12;html=1;rounded=1;labelBackgroundColor=none;strokeColor=#FF6392;fontColor=default;" edge="1" parent="1" source="RiAWKYnP5i1xKqik1eG4-49" target="RiAWKYnP5i1xKqik1eG4-45">
          <mxGeometry width="160" relative="1" as="geometry">
            <mxPoint x="-290.38" y="530" as="sourcePoint" />
            <mxPoint x="-130.38" y="530" as="targetPoint" />
          </mxGeometry>
        </mxCell>
        <mxCell id="RiAWKYnP5i1xKqik1eG4-78" value="" style="endArrow=block;dashed=1;endFill=0;endSize=12;html=1;rounded=1;labelBackgroundColor=none;strokeColor=#FF6392;fontColor=default;" edge="1" parent="1" source="RiAWKYnP5i1xKqik1eG4-53" target="RiAWKYnP5i1xKqik1eG4-45">
          <mxGeometry width="160" relative="1" as="geometry">
            <mxPoint x="-439.38" y="568" as="sourcePoint" />
            <mxPoint x="-321.38" y="508" as="targetPoint" />
          </mxGeometry>
        </mxCell>
        <mxCell id="RiAWKYnP5i1xKqik1eG4-79" value="" style="endArrow=block;dashed=1;endFill=0;endSize=12;html=1;rounded=1;labelBackgroundColor=none;strokeColor=#FF6392;fontColor=default;" edge="1" parent="1" source="RiAWKYnP5i1xKqik1eG4-57" target="RiAWKYnP5i1xKqik1eG4-45">
          <mxGeometry width="160" relative="1" as="geometry">
            <mxPoint x="-429.38" y="578" as="sourcePoint" />
            <mxPoint x="-311.38" y="518" as="targetPoint" />
          </mxGeometry>
        </mxCell>
        <mxCell id="RiAWKYnP5i1xKqik1eG4-80" value="" style="endArrow=none;dashed=1;html=1;rounded=1;labelBackgroundColor=none;strokeColor=#B20000;fontColor=default;fillColor=#e51400;" edge="1" parent="1">
          <mxGeometry width="50" height="50" relative="1" as="geometry">
            <mxPoint x="150" y="660" as="sourcePoint" />
            <mxPoint x="-670" y="660" as="targetPoint" />
          </mxGeometry>
        </mxCell>
        <mxCell id="RiAWKYnP5i1xKqik1eG4-84" value="" style="endArrow=none;dashed=1;html=1;rounded=1;labelBackgroundColor=none;strokeColor=#B20000;fontColor=default;fillColor=#e51400;" edge="1" parent="1">
          <mxGeometry width="50" height="50" relative="1" as="geometry">
            <mxPoint x="151.12" y="547" as="sourcePoint" />
            <mxPoint x="-670" y="550" as="targetPoint" />
          </mxGeometry>
        </mxCell>
        <mxCell id="RiAWKYnP5i1xKqik1eG4-85" value="" style="endArrow=none;dashed=1;html=1;rounded=1;labelBackgroundColor=none;strokeColor=#B20000;fontColor=default;fillColor=#e51400;" edge="1" parent="1">
          <mxGeometry width="50" height="50" relative="1" as="geometry">
            <mxPoint x="-670" y="658" as="sourcePoint" />
            <mxPoint x="-670" y="550" as="targetPoint" />
          </mxGeometry>
        </mxCell>
        <mxCell id="RiAWKYnP5i1xKqik1eG4-86" value="" style="endArrow=none;dashed=1;html=1;rounded=1;labelBackgroundColor=none;strokeColor=#B20000;fontColor=default;fillColor=#e51400;" edge="1" parent="1">
          <mxGeometry width="50" height="50" relative="1" as="geometry">
            <mxPoint x="150" y="658" as="sourcePoint" />
            <mxPoint x="150" y="548" as="targetPoint" />
          </mxGeometry>
        </mxCell>
        <mxCell id="RiAWKYnP5i1xKqik1eG4-87" value="" style="endArrow=none;dashed=1;html=1;rounded=1;labelBackgroundColor=none;strokeColor=#B20000;fontColor=default;fillColor=#e51400;" edge="1" parent="1">
          <mxGeometry width="50" height="50" relative="1" as="geometry">
            <mxPoint x="1060" y="760" as="sourcePoint" />
            <mxPoint x="-80" y="760" as="targetPoint" />
          </mxGeometry>
        </mxCell>
        <mxCell id="RiAWKYnP5i1xKqik1eG4-88" value="" style="endArrow=none;dashed=1;html=1;rounded=1;labelBackgroundColor=none;strokeColor=#B20000;fontColor=default;fillColor=#e51400;" edge="1" parent="1">
          <mxGeometry width="50" height="50" relative="1" as="geometry">
            <mxPoint x="1060" y="880" as="sourcePoint" />
            <mxPoint x="-80" y="880" as="targetPoint" />
          </mxGeometry>
        </mxCell>
        <mxCell id="RiAWKYnP5i1xKqik1eG4-89" value="" style="endArrow=none;dashed=1;html=1;rounded=1;labelBackgroundColor=none;strokeColor=#B20000;fontColor=default;fillColor=#e51400;" edge="1" parent="1">
          <mxGeometry width="50" height="50" relative="1" as="geometry">
            <mxPoint x="-80" y="880" as="sourcePoint" />
            <mxPoint x="-80" y="760" as="targetPoint" />
          </mxGeometry>
        </mxCell>
        <mxCell id="RiAWKYnP5i1xKqik1eG4-90" value="" style="endArrow=none;dashed=1;html=1;rounded=1;labelBackgroundColor=none;strokeColor=#B20000;fontColor=default;fillColor=#e51400;" edge="1" parent="1">
          <mxGeometry width="50" height="50" relative="1" as="geometry">
            <mxPoint x="1060" y="878" as="sourcePoint" />
            <mxPoint x="1060" y="758" as="targetPoint" />
          </mxGeometry>
        </mxCell>
        <mxCell id="RiAWKYnP5i1xKqik1eG4-91" value="Template" style="html=1;whiteSpace=wrap;textDirection=vertical-lr;direction=south;labelBackgroundColor=none;fillColor=#1ba1e2;strokeColor=#006EAF;fontColor=#ffffff;rounded=1;" vertex="1" parent="1">
          <mxGeometry x="230" y="585" width="22.5" height="78" as="geometry" />
        </mxCell>
        <mxCell id="RiAWKYnP5i1xKqik1eG4-92" value="Context&lt;div&gt;&lt;/div&gt;" style="html=1;whiteSpace=wrap;labelBackgroundColor=none;fillColor=#e51400;strokeColor=#B20000;fontColor=#ffffff;rounded=1;" vertex="1" parent="1">
          <mxGeometry x="20" y="170" width="70" height="40" as="geometry" />
        </mxCell>
      </root>
    </mxGraphModel>
  </diagram>
</mxfile>
